# xmcd
#
# Track frame offsets:
#       150
#       12415
#       25020
#       35695
#       42137
#       51002
#       60980
#       69320
#       81940
#       91620
#       100335
#       111387
#       126785
#       135690
#       147770
#       158190
#       167182
#       178242
#       189900
#       201040
#
# Disc length: 2792 seconds
#
# Revision: 0
# Processed by: cddbd v1.4PL0 Copyright (c) Steve Scherf et al.
# Submitted via: CD-DA_X-Tractor v0.21
#
DISCID=0b0ae614
DTITLE=Gene Autry - Ggene Autry
DYEAR=1900
DGENRE=
TTITLE0=Dixie Cannon Ball
TTITLE1=My Old Kentucky Home
TTITLE2=Down in the Valley
TTITLE3=Cowboy Blues
TTITLE4=A Boy from Texas, a Girl from Tennessee
TTITLE5=The West, a Nest, and You
TTITLE6=Don't Bite the Hand That's Feeding You (live)
TTITLE7=Missouri Waltz
TTITLE8=There's No Back Door To Heaven
TTITLE9=Kentucky Babe
TTITLE10=You're The Only Good Thing
TTITLE11=When Day is Done
TTITLE12=You Are My Sunshine
TTITLE13=I Hang My Head And Cry
TTITLE14=San Antonio Rose
TTITLE15=Goodbye Little Darling Goodbye
TTITLE16=Trouble In Mind
TTITLE17=Lonely River
TTITLE18=You're The Only Star (In My Blue Heaven)
TTITLE19=Tweedle_O_Twill
EXTD=
EXTT0=
EXTT1=
EXTT2=
EXTT3=
EXTT4=
EXTT5=
EXTT6=
EXTT7=
EXTT8=
EXTT9=
EXTT10=
EXTT11=
EXTT12=
EXTT13=
EXTT14=
EXTT15=
EXTT16=
EXTT17=
EXTT18=
EXTT19=
PLAYORDER=
